PathFileType  4	(X/Y/Z) C:\Users\antoi\Documents\MyRepositories\mobilecap\ResultsAnalysis
DataRate	CameraRate	NumFrames	NumMarkers	Units	OrigDataRate	OrigDataStartFrame	OrigNumFrames
100.0	100.0	6	51	mm	100.0	1431	2288
Frame#	Time	r_knee			r_shank_antsup			r_ankle			r_calc			r_5meta			r_toe			L_knee			L_shank_antsup			L_ankle			L_calc			L_5meta			L_toe			r_sh2			r_sh3			r_sh4			L_sh2			L_sh3			r_thigh1			r_thigh2			r_thigh3			r_thigh4			r_thigh5			L_thigh1			L_thigh2			L_thigh3			L_thigh4			r.ASIS			r.PSIS			L.ASIS			L.PSIS			C7			R_Shoulder			L_Shoulder			R_Sternum			L_Sternum			R_humerus			R_elbow_med			R_elbow_lat			R_forearm			R_wrist_radius			R_wrist_ulna			L_humerus			L_elbow_med			L_elbow_lat			L_forearm			L_wrist_radius			L_wrist_ulna			R_HJC			L_HJC			R_HJC_reg			L_HJC_reg			
		X1	Y1	Z1	X2	Y2	Z2	X3	Y3	Z3	X4	Y4	Z4	X5	Y5	Z5	X6	Y6	Z6	X7	Y7	Z7	X8	Y8	Z8	X9	Y9	Z9	X10	Y10	Z10	X11	Y11	Z11	X12	Y12	Z12	X13	Y13	Z13	X14	Y14	Z14	X15	Y15	Z15	X16	Y16	Z16	X17	Y17	Z17	X18	Y18	Z18	X19	Y19	Z19	X20	Y20	Z20	X21	Y21	Z21	X22	Y22	Z22	X23	Y23	Z23	X24	Y24	Z24	X25	Y25	Z25	X26	Y26	Z26	X27	Y27	Z27	X28	Y28	Z28	X29	Y29	Z29	X30	Y30	Z30	X31	Y31	Z31	X32	Y32	Z32	X33	Y33	Z33	X34	Y34	Z34	X35	Y35	Z35	X36	Y36	Z36	X37	Y37	Z37	X38	Y38	Z38	X39	Y39	Z39	X40	Y40	Z40	X41	Y41	Z41	X42	Y42	Z42	X43	Y43	Z43	X44	Y44	Z44	X45	Y45	Z45	X46	Y46	Z46	X47	Y47	Z47	X48	Y48	Z48	X49	Y49	Z49	X50	Y50	Z50	X51	Y51	Z51	

1431	14.30000000	-114.22172	458.22888	-434.44637	-93.38110	342.07883	-440.10668	-235.09363	95.38940	-442.91590	-286.92471	52.93323	-492.79594	-130.59923	40.55833	-399.30381	-91.72727	56.09023	-440.75166	-109.49804	455.26071	-791.58250	-85.16459	342.28756	-757.10056	-245.06206	94.28174	-796.15361	-296.72425	54.90175	-753.65067	-133.80485	36.93849	-820.52597	-92.98324	54.14413	-767.63422	-131.46980	235.32442	-446.72056	-150.30877	357.59659	-393.18848	-200.26457	258.04487	-407.86906	-132.52106	381.78100	-822.57547	-175.42707	268.95335	-838.92334	-109.70001	769.92771	-451.36442	-77.30306	666.67603	-439.62229	-117.89645	630.81389	-399.94611	-211.82051	739.52069	-416.07318	-173.55402	631.65316	-402.65349	-117.47561	752.43013	-798.06358	-70.55519	625.46993	-800.04674	-225.21526	725.35858	-822.12386	-174.03685	592.44782	-818.78320	-107.55102	902.28833	-496.16285	-281.39971	975.00200	-566.10665	-106.16049	899.75599	-744.68142	-284.78066	974.82331	-684.11216	-126.10587	1406.13612	-616.88751	-77.58908	1366.38882	-466.04300	-63.32406	1372.31951	-772.10419	-16.05986	1324.83351	-598.09933	-14.38749	1322.76400	-641.43635	-110.70317	1250.14784	-391.58932	-276.42327	1104.50484	-422.08629	-229.64294	1106.26010	-352.50631	-118.51272	1082.63848	-403.34966	-36.41742	1088.03258	-463.48766	-34.96042	1051.21336	-457.29778	-101.50231	1233.31292	-850.98570	-251.06016	1094.57856	-817.37634	-222.43049	1091.72091	-892.61598	-123.97946	1066.70390	-849.22203	-24.90488	1066.59692	-767.70631	-27.73023	1034.14798	-771.64848	-208.75337	846.93488	-523.64530	-204.17421	840.79778	-712.86819	-188.97121	844.24838	-528.62985	-193.66942	843.99984	-692.59558	
1432	14.31000000	-115.49997	458.74091	-434.24788	-94.54423	342.52785	-439.94826	-235.31176	95.33797	-442.83968	-286.95926	52.88800	-492.68630	-130.64289	40.50096	-399.23540	-91.78917	56.18317	-440.65200	-110.71786	456.00681	-791.37737	-86.26633	342.96392	-756.86923	-245.18899	94.34069	-796.08428	-296.74151	54.93988	-753.58685	-133.80082	37.10077	-820.52821	-92.98256	54.26822	-767.53475	-132.32920	235.68081	-446.53332	-151.67780	357.94336	-393.02293	-201.06342	257.89479	-407.79420	-133.78855	382.29314	-822.14845	-176.18213	269.46395	-838.77348	-108.13085	770.54339	-451.19113	-76.63329	666.96145	-439.68677	-117.61663	631.56317	-399.75678	-210.50707	740.92449	-415.98854	-173.16116	632.60089	-402.82243	-116.04656	753.24655	-797.72472	-70.37183	625.90068	-799.90944	-224.10211	727.13384	-822.05543	-174.06804	593.82605	-818.66383	-105.82259	904.24856	-495.88314	-280.18282	975.86496	-565.97314	-104.45762	901.87817	-744.43483	-283.67573	975.66656	-683.70145	-129.45834	1408.50674	-617.15067	-81.58511	1369.18212	-466.38592	-66.82485	1375.60127	-772.08983	-19.08753	1328.53098	-597.77540	-17.36884	1326.54832	-641.22756	-112.97564	1252.94872	-391.47543	-277.03808	1105.42110	-421.66087	-230.28179	1107.81196	-352.19615	-118.95058	1085.36217	-403.01217	-36.82953	1091.64983	-463.05669	-34.98137	1054.85248	-456.95104	-103.61221	1236.23305	-850.97678	-251.57606	1095.69307	-817.69179	-222.97433	1093.28778	-892.70651	-124.19650	1069.33663	-849.13670	-25.20984	1070.27728	-767.70381	-27.70872	1037.84525	-771.66779	-206.67731	848.24803	-523.41411	-202.08014	842.22163	-712.64007	-186.82069	845.77282	-528.27236	-191.68627	845.49632	-692.25395	
1433	14.32000000	-116.83974	459.22843	-434.03480	-95.78737	343.01604	-439.83307	-235.54569	95.30433	-442.81500	-287.04252	52.86975	-492.54992	-130.66731	40.45752	-399.18210	-91.87151	56.28590	-440.57049	-111.88107	456.72245	-791.33597	-87.34101	343.60660	-756.63172	-245.31943	94.45898	-795.99222	-296.75628	55.02063	-753.50009	-133.78668	37.24516	-820.48635	-92.98001	54.40642	-767.43379	-133.19814	235.99088	-446.40992	-153.04412	358.28818	-392.85445	-202.08168	257.77821	-407.66293	-134.97165	382.96203	-822.07265	-176.97040	269.84806	-838.71169	-106.57060	771.24363	-451.06213	-76.07415	667.27349	-439.57938	-117.37780	632.20511	-399.69438	-209.13681	742.42834	-415.84127	-172.85020	633.70402	-402.80698	-114.65121	754.11839	-797.53722	-70.18652	626.27313	-799.65373	-222.93081	728.87021	-821.83414	-174.14183	595.08823	-818.55329	-104.18660	906.18181	-495.71632	-278.95598	976.68837	-565.88962	-102.80037	903.94365	-744.12704	-282.55032	976.47111	-683.33996	-132.97424	1410.81956	-617.07962	-85.42380	1372.05363	-466.53377	-70.27741	1378.84241	-772.05313	-22.10727	1332.08590	-597.41991	-20.38373	1330.20640	-641.09816	-115.31505	1255.67985	-391.26104	-277.60041	1106.29829	-421.31532	-230.93707	1109.30684	-351.87868	-119.28870	1088.00007	-402.68984	-37.25738	1095.27684	-462.54871	-35.03340	1058.46666	-456.51162	-105.69102	1239.02581	-850.94147	-252.03922	1096.72554	-818.01527	-223.49696	1094.84627	-892.72981	-124.53209	1071.89710	-849.04070	-25.53556	1073.90315	-767.64745	-27.72455	1041.35516	-771.55960	-204.65866	849.53502	-523.21533	-200.01708	843.60355	-712.44322	-184.71825	847.30947	-528.00732	-189.73353	847.00644	-691.89060	
1434	14.33000000	-118.21324	459.75315	-433.87460	-97.13330	343.57647	-439.61225	-235.76798	95.22725	-442.82277	-287.08753	52.89234	-492.40322	-130.69281	40.41732	-399.16917	-91.96246	56.39393	-440.51811	-113.05654	457.38015	-791.28804	-88.42388	344.31497	-756.49335	-245.46240	94.61728	-795.93898	-296.77336	55.13639	-753.38835	-133.73188	37.36310	-820.40299	-92.98117	54.52617	-767.36140	-134.10763	236.44667	-446.15769	-154.39901	358.52678	-392.82980	-203.16542	257.83699	-407.45101	-136.05185	383.88504	-822.25834	-177.89902	270.22450	-838.81223	-104.98854	771.92904	-451.00877	-75.52238	667.66090	-439.25552	-117.08635	632.62250	-399.85412	-207.80217	744.01076	-415.62295	-172.61732	634.96302	-402.69706	-113.35198	754.94840	-797.34700	-69.97077	626.59634	-799.31324	-221.76336	730.53562	-821.44173	-174.32773	596.33567	-818.44812	-102.51843	908.23078	-495.38384	-277.73557	977.51527	-565.76082	-101.18842	906.06243	-743.87905	-281.40893	977.26221	-683.03844	-136.66032	1413.13381	-616.86845	-88.96957	1374.90986	-466.46074	-73.72638	1381.91921	-771.96149	-25.05781	1335.53009	-597.19148	-23.39624	1333.64743	-640.92008	-117.70304	1258.28263	-390.98038	-278.17771	1107.10665	-421.02018	-231.61941	1110.65491	-351.50593	-119.63499	1090.56557	-402.39965	-37.75046	1098.83563	-462.07620	-35.13784	1061.94750	-456.12433	-107.76062	1241.72013	-850.93245	-252.61137	1097.81937	-817.93625	-224.06550	1096.36819	-892.72501	-124.90724	1074.47050	-849.19187	-25.90359	1077.40579	-767.59978	-27.75645	1044.83722	-771.50168	-202.60107	850.89141	-522.96614	-197.91741	845.00025	-712.19427	-182.61770	848.82917	-527.62408	-187.75247	848.47528	-691.55865	
1435	14.34000000	-119.55660	460.33988	-433.74246	-98.50762	344.14524	-439.28715	-235.97280	95.09097	-442.86270	-287.12092	52.92155	-492.22898	-130.72569	40.40167	-399.17642	-92.04190	56.49236	-440.48541	-114.34154	458.03653	-791.17628	-89.54586	345.06263	-756.40939	-245.61966	94.74572	-795.97117	-296.80010	55.20008	-753.28876	-133.66189	37.47279	-820.40577	-92.97933	54.61084	-767.29550	-134.97793	236.90131	-445.83199	-155.86910	358.74860	-392.82479	-204.58831	258.58188	-407.13585	-137.21997	384.84782	-822.39723	-178.89234	270.69963	-838.99387	-103.44032	772.47752	-450.94339	-74.93286	667.98185	-439.03035	-116.83524	633.10761	-399.87242	-206.60163	745.49456	-415.49441	-172.40612	636.15974	-402.63887	-112.09641	755.66041	-797.02866	-69.76104	626.94592	-799.07551	-220.65641	732.18452	-821.10491	-174.57955	597.62182	-818.38802	-100.80440	910.43362	-494.80200	-276.58458	978.33254	-565.50347	-99.50863	908.23115	-743.85750	-280.28996	978.01260	-682.72246	-140.29754	1415.34648	-616.83947	-92.40303	1377.57582	-466.35907	-77.19583	1384.79631	-771.90062	-27.99452	1338.86762	-597.13531	-26.36608	1336.99197	-640.61640	-120.04129	1260.73927	-390.82510	-278.83433	1107.81885	-420.69745	-232.32939	1111.92020	-351.09121	-120.15509	1093.08675	-402.07655	-38.31939	1102.24927	-461.62498	-35.30755	1065.29003	-455.73317	-109.85760	1244.34448	-850.97429	-253.31933	1098.92466	-817.62821	-224.69727	1097.76429	-892.76937	-125.27979	1076.91643	-849.34522	-26.34765	1080.79508	-767.54155	-27.86868	1048.29428	-771.44396	-200.44972	852.30873	-522.64924	-195.74573	846.41072	-711.87665	-180.49576	850.26621	-527.09097	-185.68948	849.81749	-691.39356	
1436	14.35000000	-120.89245	460.90197	-433.62252	-99.82633	344.60617	-439.03840	-236.16389	94.96129	-442.87000	-287.22189	52.91046	-492.01789	-130.75447	40.40271	-399.16719	-92.11146	56.55817	-440.44538	-115.69133	458.67218	-791.17333	-90.70704	345.75280	-756.38547	-245.78958	94.79806	-796.11801	-296.83905	55.17702	-753.26974	-133.63234	37.55398	-820.51514	-92.99885	54.68056	-767.23919	-135.77239	237.17756	-445.60223	-157.42623	359.05706	-392.65668	-206.03260	259.34440	-406.88726	-138.59366	385.42288	-822.53723	-179.79945	271.13032	-839.14178	-101.99668	772.94869	-450.77673	-74.40299	668.18271	-438.89851	-116.69444	633.78978	-399.66182	-205.46896	746.85542	-415.45931	-172.18407	637.21427	-402.56757	-110.87962	756.23406	-796.65102	-69.61751	627.27434	-798.95743	-219.62034	733.86594	-821.01325	-174.79966	598.89013	-818.38563	-99.12750	912.53041	-494.32946	-275.50106	979.05229	-565.20530	-97.75224	910.22028	-743.89324	-279.18589	978.65971	-682.39958	-143.83435	1417.39667	-616.92394	-95.83460	1380.03758	-466.31989	-80.64251	1387.48876	-771.86376	-30.98264	1342.07051	-597.10528	-29.21414	1340.32130	-640.24207	-122.29175	1263.08219	-390.74701	-279.49737	1108.49394	-420.43021	-233.07293	1113.15500	-350.72407	-120.74116	1095.54715	-401.62120	-38.91849	1105.48454	-461.15783	-35.50712	1068.54957	-455.27074	-111.98583	1246.85117	-851.04507	-253.98678	1099.85603	-817.51488	-225.33932	1099.01444	-892.80436	-125.67093	1079.16261	-849.25877	-26.85158	1084.07102	-767.48637	-28.05247	1051.57021	-771.35916	-198.31316	853.61619	-522.35621	-193.59713	847.69979	-711.58278	-178.39904	851.58224	-526.69153	-183.57559	851.03080	-691.33100	
